<?xml version="1.0" encoding="UTF-8" standalone="no"?>
<!DOCTYPE svg PUBLIC "-//W3C//DTD SVG 1.1//EN"
 "http://www.w3.org/Graphics/SVG/1.1/DTD/svg11.dtd">
<!-- Generated by graphviz version 2.38.0 (20140413.2041)
 -->
<!-- Title: snakemake_dag Pages: 1 -->
<svg width="327pt" height="276pt"
 viewBox="0.00 0.00 327.00 276.00" xmlns="http://www.w3.org/2000/svg" xmlns:xlink="http://www.w3.org/1999/xlink">
<g id="graph0" class="graph" transform="scale(1 1) rotate(0) translate(4 272)">
<title>snakemake_dag</title>
<polygon fill="white" stroke="none" points="-4,4 -4,-272 323,-272 323,4 -4,4"/>
<!-- 0 -->
<g id="node1" class="node"><title>0</title>
<path fill="none" stroke="#88d856" stroke-width="2" d="M165.5,-36C165.5,-36 135.5,-36 135.5,-36 129.5,-36 123.5,-30 123.5,-24 123.5,-24 123.5,-12 123.5,-12 123.5,-6 129.5,-0 135.5,-0 135.5,-0 165.5,-0 165.5,-0 171.5,-0 177.5,-6 177.5,-12 177.5,-12 177.5,-24 177.5,-24 177.5,-30 171.5,-36 165.5,-36"/>
<text text-anchor="middle" x="150.5" y="-15.5" font-family="sans" font-size="10.00">all</text>
</g>
<!-- 1 -->
<g id="node2" class="node"><title>1</title>
<path fill="none" stroke="#56d88a" stroke-width="2" d="M167,-108C167,-108 134,-108 134,-108 128,-108 122,-102 122,-96 122,-96 122,-84 122,-84 122,-78 128,-72 134,-72 134,-72 167,-72 167,-72 173,-72 179,-78 179,-84 179,-84 179,-96 179,-96 179,-102 173,-108 167,-108"/>
<text text-anchor="middle" x="150.5" y="-87.5" font-family="sans" font-size="10.00">map_ids</text>
</g>
<!-- 1&#45;&gt;0 -->
<g id="edge1" class="edge"><title>1&#45;&gt;0</title>
<path fill="none" stroke="grey" stroke-width="2" d="M150.5,-71.6966C150.5,-63.9827 150.5,-54.7125 150.5,-46.1124"/>
<polygon fill="grey" stroke="grey" stroke-width="2" points="154,-46.1043 150.5,-36.1043 147,-46.1044 154,-46.1043"/>
</g>
<!-- 2 -->
<g id="node3" class="node"><title>2</title>
<path fill="none" stroke="#d8bc56" stroke-width="2" d="M77.5,-180C77.5,-180 47.5,-180 47.5,-180 41.5,-180 35.5,-174 35.5,-168 35.5,-168 35.5,-156 35.5,-156 35.5,-150 41.5,-144 47.5,-144 47.5,-144 77.5,-144 77.5,-144 83.5,-144 89.5,-150 89.5,-156 89.5,-156 89.5,-168 89.5,-168 89.5,-174 83.5,-180 77.5,-180"/>
<text text-anchor="middle" x="62.5" y="-159.5" font-family="sans" font-size="10.00">unzip</text>
</g>
<!-- 2&#45;&gt;0 -->
<g id="edge2" class="edge"><title>2&#45;&gt;0</title>
<path fill="none" stroke="grey" stroke-width="2" d="M40.6782,-143.761C20.2107,-125.449 -4.96833,-95.9041 11.5,-72 34.1746,-39.0873 80.229,-26.5988 113.111,-21.8686"/>
<polygon fill="grey" stroke="grey" stroke-width="2" points="113.793,-25.3104 123.278,-20.5894 112.919,-18.3652 113.793,-25.3104"/>
</g>
<!-- 2&#45;&gt;1 -->
<g id="edge7" class="edge"><title>2&#45;&gt;1</title>
<path fill="none" stroke="grey" stroke-width="2" d="M84.2528,-143.697C95.3357,-134.881 108.974,-124.032 120.99,-114.474"/>
<polygon fill="grey" stroke="grey" stroke-width="2" points="123.35,-117.069 128.997,-108.104 118.993,-111.59 123.35,-117.069"/>
</g>
<!-- 3 -->
<g id="node4" class="node"><title>3</title>
<path fill="none" stroke="#56c1d8" stroke-width="2" d="M92,-108C92,-108 33,-108 33,-108 27,-108 21,-102 21,-96 21,-96 21,-84 21,-84 21,-78 27,-72 33,-72 33,-72 92,-72 92,-72 98,-72 104,-78 104,-84 104,-84 104,-96 104,-96 104,-102 98,-108 92,-108"/>
<text text-anchor="middle" x="62.5" y="-87.5" font-family="sans" font-size="10.00">grep_headers</text>
</g>
<!-- 2&#45;&gt;3 -->
<g id="edge9" class="edge"><title>2&#45;&gt;3</title>
<path fill="none" stroke="grey" stroke-width="2" d="M62.5,-143.697C62.5,-135.983 62.5,-126.712 62.5,-118.112"/>
<polygon fill="grey" stroke="grey" stroke-width="2" points="66.0001,-118.104 62.5,-108.104 59.0001,-118.104 66.0001,-118.104"/>
</g>
<!-- 3&#45;&gt;0 -->
<g id="edge3" class="edge"><title>3&#45;&gt;0</title>
<path fill="none" stroke="grey" stroke-width="2" d="M84.2528,-71.6966C95.3357,-62.8807 108.974,-52.0321 120.99,-42.4742"/>
<polygon fill="grey" stroke="grey" stroke-width="2" points="123.35,-45.0687 128.997,-36.1043 118.993,-39.5905 123.35,-45.0687"/>
</g>
<!-- 4 -->
<g id="node5" class="node"><title>4</title>
<path fill="none" stroke="#d8bc56" stroke-width="2" d="M222.5,-180C222.5,-180 192.5,-180 192.5,-180 186.5,-180 180.5,-174 180.5,-168 180.5,-168 180.5,-156 180.5,-156 180.5,-150 186.5,-144 192.5,-144 192.5,-144 222.5,-144 222.5,-144 228.5,-144 234.5,-150 234.5,-156 234.5,-156 234.5,-168 234.5,-168 234.5,-174 228.5,-180 222.5,-180"/>
<text text-anchor="middle" x="207.5" y="-159.5" font-family="sans" font-size="10.00">unzip</text>
</g>
<!-- 4&#45;&gt;0 -->
<g id="edge4" class="edge"><title>4&#45;&gt;0</title>
<path fill="none" stroke="grey" stroke-width="2" d="M205.667,-143.986C203.239,-125.607 197.978,-95.765 187.5,-72 183.266,-62.3977 177.189,-52.7384 171.179,-44.3451"/>
<polygon fill="grey" stroke="grey" stroke-width="2" points="173.813,-42.0235 165.021,-36.1121 168.208,-46.2163 173.813,-42.0235"/>
</g>
<!-- 4&#45;&gt;1 -->
<g id="edge6" class="edge"><title>4&#45;&gt;1</title>
<path fill="none" stroke="grey" stroke-width="2" d="M193.41,-143.697C186.577,-135.305 178.243,-125.07 170.744,-115.861"/>
<polygon fill="grey" stroke="grey" stroke-width="2" points="173.456,-113.649 164.428,-108.104 168.028,-118.069 173.456,-113.649"/>
</g>
<!-- 5 -->
<g id="node6" class="node"><title>5</title>
<path fill="none" stroke="#56c1d8" stroke-width="2" d="M307,-108C307,-108 248,-108 248,-108 242,-108 236,-102 236,-96 236,-96 236,-84 236,-84 236,-78 242,-72 248,-72 248,-72 307,-72 307,-72 313,-72 319,-78 319,-84 319,-84 319,-96 319,-96 319,-102 313,-108 307,-108"/>
<text text-anchor="middle" x="277.5" y="-87.5" font-family="sans" font-size="10.00">grep_headers</text>
</g>
<!-- 4&#45;&gt;5 -->
<g id="edge11" class="edge"><title>4&#45;&gt;5</title>
<path fill="none" stroke="grey" stroke-width="2" d="M224.803,-143.697C233.365,-135.135 243.844,-124.656 253.196,-115.304"/>
<polygon fill="grey" stroke="grey" stroke-width="2" points="255.799,-117.65 260.396,-108.104 250.85,-112.701 255.799,-117.65"/>
</g>
<!-- 5&#45;&gt;0 -->
<g id="edge5" class="edge"><title>5&#45;&gt;0</title>
<path fill="none" stroke="grey" stroke-width="2" d="M246.432,-71.8761C228.384,-61.928 205.557,-49.3461 186.698,-38.9516"/>
<polygon fill="grey" stroke="grey" stroke-width="2" points="188.244,-35.8076 177.797,-34.0456 184.865,-41.938 188.244,-35.8076"/>
</g>
<!-- 6 -->
<g id="node7" class="node"><title>6</title>
<path fill="none" stroke="#d85656" stroke-width="2" d="M113,-268C113,-268 12,-268 12,-268 6,-268 7.10543e-15,-262 7.10543e-15,-256 7.10543e-15,-256 7.10543e-15,-228 7.10543e-15,-228 7.10543e-15,-222 6,-216 12,-216 12,-216 113,-216 113,-216 119,-216 125,-222 125,-228 125,-228 125,-256 125,-256 125,-262 119,-268 113,-268"/>
<text text-anchor="middle" x="62.5" y="-256" font-family="sans" font-size="10.00">download_refs</text>
<text text-anchor="middle" x="62.5" y="-245" font-family="sans" font-size="10.00">label: fasta1_to_fasta2</text>
<text text-anchor="middle" x="62.5" y="-234" font-family="sans" font-size="10.00">name: fasta2</text>
<text text-anchor="middle" x="62.5" y="-223" font-family="sans" font-size="10.00">organism: test</text>
</g>
<!-- 6&#45;&gt;2 -->
<g id="edge8" class="edge"><title>6&#45;&gt;2</title>
<path fill="none" stroke="grey" stroke-width="2" d="M62.5,-215.891C62.5,-207.84 62.5,-198.88 62.5,-190.658"/>
<polygon fill="grey" stroke="grey" stroke-width="2" points="66.0001,-190.411 62.5,-180.411 59.0001,-190.411 66.0001,-190.411"/>
</g>
<!-- 7 -->
<g id="node8" class="node"><title>7</title>
<path fill="none" stroke="#d85656" stroke-width="2" d="M258,-268C258,-268 157,-268 157,-268 151,-268 145,-262 145,-256 145,-256 145,-228 145,-228 145,-222 151,-216 157,-216 157,-216 258,-216 258,-216 264,-216 270,-222 270,-228 270,-228 270,-256 270,-256 270,-262 264,-268 258,-268"/>
<text text-anchor="middle" x="207.5" y="-256" font-family="sans" font-size="10.00">download_refs</text>
<text text-anchor="middle" x="207.5" y="-245" font-family="sans" font-size="10.00">label: fasta1_to_fasta2</text>
<text text-anchor="middle" x="207.5" y="-234" font-family="sans" font-size="10.00">name: fasta1</text>
<text text-anchor="middle" x="207.5" y="-223" font-family="sans" font-size="10.00">organism: test</text>
</g>
<!-- 7&#45;&gt;4 -->
<g id="edge10" class="edge"><title>7&#45;&gt;4</title>
<path fill="none" stroke="grey" stroke-width="2" d="M207.5,-215.891C207.5,-207.84 207.5,-198.88 207.5,-190.658"/>
<polygon fill="grey" stroke="grey" stroke-width="2" points="211,-190.411 207.5,-180.411 204,-190.411 211,-190.411"/>
</g>
</g>
</svg>
